<svg xmlns:rdf="http://www.w3.org/1999/02/22-rdf-syntax-ns#" xmlns="http://www.w3.org/2000/svg" height="84.436" viewBox="0 0 470.94241 84.436256" width="470.94" version="1.1" xmlns:cc="http://creativecommons.org/ns#" xmlns:dc="http://purl.org/dc/elements/1.1/">
<g transform="translate(31.634 -78.721)">
<g fill="#fff" transform="matrix(1.1093 0 0 1.1093 -71.809 298.28)">
<g style="color:#000000">
<path d="m130.33-187.13q0-2.55-0.69-4.53-0.66-2.01-1.89-3.39-1.2-1.41-2.91-2.13-1.68-0.75-3.72-0.75-2.07 0-3.78 0.75t-2.94 2.16q-1.23 1.38-1.92 3.39-0.66 2.01-0.66 4.56t0.66 4.56q0.69 1.98 1.89 3.39 1.23 1.38 2.91 2.13 1.71 0.72 3.78 0.72 2.04 0 3.75-0.75t2.94-2.13q1.23-1.41 1.89-3.42 0.69-2.01 0.69-4.56zm-4.32 0.06q0 3.21-1.35 4.92-1.32 1.71-3.54 1.71t-3.6-1.74-1.38-4.95 1.32-4.92q1.35-1.71 3.57-1.71t3.6 1.74 1.38 4.95z"/>
<path d="m150.97-190.94q0-1.68-0.57-2.91-0.57-1.26-1.56-2.1t-2.31-1.23q-1.32-0.42-2.79-0.42h-9.18v21h4.2v-7.44h4.62q1.62 0 3-0.39 1.41-0.39 2.43-1.23t1.59-2.13q0.57-1.32 0.57-3.15zm-4.32 0.09q0 2.73-3 2.73h-4.89v-5.4h4.83q1.41 0 2.22 0.66 0.84 0.63 0.84 2.01z"/>
<path d="m169.98-176.6v-4.11h-10.83v-5.07h6.03v-4.08h-6.03v-3.63h10.38v-4.11h-14.58v21h15.03z"/>
<path d="m191.47-176.6v-21h-4.14v8.88q0 0.45 0 1.11 0.03 0.66 0.03 1.35 0 0.66 0 1.26 0.03 0.57 0.03 0.87-0.21-0.42-0.66-1.08-0.42-0.69-0.81-1.29l-7.44-11.1h-4.02v21h4.14v-9.24q0-0.45-0.03-1.11 0-0.66 0-1.32 0-0.69-0.03-1.26 0-0.6 0-0.9 0.21 0.42 0.63 1.11 0.45 0.66 0.84 1.26l7.71 11.46h3.75z"/>
<path d="m209.8-182.12q0-1.17-0.3-2.07t-1.02-1.65q-0.69-0.75-1.86-1.38t-2.91-1.26q-1.59-0.57-2.58-1.05-0.96-0.48-1.5-0.96-0.54-0.51-0.72-1.02-0.18-0.54-0.18-1.2 0-0.63 0.21-1.17 0.24-0.57 0.72-0.99 0.51-0.42 1.29-0.66 0.78-0.27 1.86-0.27 1.59 0 2.73 0.51 1.17 0.48 2.31 1.44l1.5-1.83q-1.32-1.05-2.82-1.65-1.47-0.6-3.57-0.6-1.47 0-2.7 0.36-1.2 0.36-2.07 1.08-0.84 0.69-1.32 1.68t-0.48 2.25q0 1.14 0.3 2.01 0.33 0.87 1.02 1.59 0.72 0.69 1.86 1.32 1.17 0.6 2.88 1.2 1.44 0.51 2.4 1.02 0.96 0.48 1.53 0.99 0.6 0.51 0.84 1.11t0.24 1.32q0 1.68-1.23 2.64-1.2 0.96-3.3 0.96-1.62 0-3-0.69t-2.58-1.83l-1.56 1.74q1.26 1.26 3.06 2.1 1.83 0.81 3.99 0.81 1.65 0 2.94-0.45t2.19-1.23 1.35-1.86q0.48-1.08 0.48-2.31z"/>
<path d="m229.77-176.6v-21h-2.34v8.97h-10.44v-8.97h-2.34v21h2.34v-9.9h10.44v9.9h2.34z"/>
<path d="m237.77-176.6v-21h-2.34v21h2.34z"/>
<path d="m255.75-195.47v-2.13h-12.33v21h2.34v-9.78h5.76v-2.13h-5.76v-6.96h9.99z"/>
<path d="m273.3-195.47v-2.13h-14.7v2.13h6.18v18.87h2.34v-18.87h6.18z"/>
<path d="m299.78-179.75-1.62-1.41q-1.02 1.32-2.25 2.04t-2.94 0.72q-1.32 0-2.46-0.63-1.14-0.66-1.98-1.8-0.84-1.17-1.32-2.76-0.45-1.62-0.45-3.54t0.45-3.51q0.48-1.59 1.29-2.73t1.95-1.77q1.14-0.66 2.49-0.66 1.71 0 2.79 0.63t2.1 2.01l1.86-1.41q-2.43-3.36-6.69-3.36-1.89 0-3.48 0.84-1.59 0.81-2.73 2.25-1.11 1.44-1.74 3.45-0.63 1.98-0.63 4.32 0 2.31 0.6 4.29t1.71 3.42 2.67 2.28q1.59 0.81 3.51 0.81 2.31 0 4.02-0.96t2.85-2.52z"/>
<path d="m320.13-187.13q0-2.37-0.63-4.35t-1.77-3.42-2.76-2.22q-1.59-0.81-3.54-0.81t-3.57 0.81-2.76 2.25-1.77 3.45q-0.63 1.98-0.63 4.35t0.6 4.35q0.63 1.98 1.77 3.42t2.73 2.25q1.62 0.78 3.57 0.78t3.57-0.81 2.76-2.25q1.17-1.44 1.8-3.42 0.63-2.01 0.63-4.38zm-2.34 0.06q0 1.98-0.48 3.6-0.48 1.59-1.32 2.73-0.84 1.11-2.01 1.74-1.17 0.6-2.52 0.6-1.38 0-2.55-0.6-1.17-0.63-2.04-1.77-0.84-1.17-1.35-2.76-0.48-1.62-0.48-3.6t0.48-3.57q0.48-1.62 1.32-2.73 0.84-1.14 1.98-1.74 1.17-0.63 2.52-0.63 1.38 0 2.55 0.63 1.17 0.6 2.04 1.77 0.87 1.14 1.35 2.76 0.51 1.59 0.51 3.57z"/>
<path d="m342.87-176.6v-21h-2.55l-5.01 12.57q-0.18 0.45-0.42 1.02-0.21 0.57-0.42 1.14t-0.39 1.08-0.27 0.84q-0.09-0.33-0.27-0.81-0.18-0.51-0.39-1.08t-0.45-1.14q-0.21-0.57-0.39-1.05l-4.95-12.57h-2.61v21h2.25v-14.22-2.25q0.09 0.3 0.21 0.75 0.15 0.42 0.3 0.9 0.18 0.45 0.36 0.96 0.18 0.48 0.36 0.87l5.52 13.53 5.61-13.53q0.18-0.42 0.36-0.9t0.36-0.93q0.18-0.48 0.3-0.9 0.15-0.45 0.24-0.75v2.25 14.22h2.25z"/>
<path d="m366.49-176.6v-21h-2.55l-5.01 12.57q-0.18 0.45-0.42 1.02-0.21 0.57-0.42 1.14t-0.39 1.08-0.27 0.84q-0.09-0.33-0.27-0.81-0.18-0.51-0.39-1.08t-0.45-1.14q-0.21-0.57-0.39-1.05l-4.95-12.57h-2.61v21h2.25v-14.22-2.25q0.09 0.3 0.21 0.75 0.15 0.42 0.3 0.9 0.18 0.45 0.36 0.96 0.18 0.48 0.36 0.87l5.52 13.53 5.61-13.53q0.18-0.42 0.36-0.9t0.36-0.93q0.18-0.48 0.3-0.9 0.15-0.45 0.24-0.75v2.25 14.22h2.25z"/>
<path d="m386.95-185.18v-12.42h-2.34v12.48q0 3.42-1.17 5.07t-3.9 1.65q-5.37 0-5.37-6.78v-12.42h-2.34v12.48q0 4.38 1.89 6.63 1.92 2.22 5.7 2.22 3.81 0 5.67-2.25 1.86-2.28 1.86-6.66z"/>
<path d="m407.43-176.6v-21h-2.25v15.84 1.44q-0.09-0.21-0.3-0.54-0.18-0.33-0.39-0.69-0.21-0.39-0.42-0.75-0.21-0.39-0.39-0.66l-9.09-14.64h-2.28v21h2.25v-15.57-1.44q0.09 0.21 0.27 0.54 0.21 0.33 0.42 0.72 0.21 0.36 0.42 0.75 0.21 0.36 0.39 0.63l9.18 14.37h2.19z"/>
<path d="m415.43-176.6v-21h-2.34v21h2.34z"/>
<path d="m434.49-195.47v-2.13h-14.7v2.13h6.18v18.87h2.34v-18.87h6.18z"/>
<path d="m454.11-197.6h-2.61l-3.36 6.03q-0.63 1.14-1.29 2.37-0.63 1.2-1.08 2.13-0.45-0.93-1.11-2.13-0.63-1.23-1.26-2.37l-3.36-6.03h-2.67l7.2 12.69v8.31h2.34v-8.34l7.2-12.66z"/>
</g>
<g style="color:#000000">
<path d="m141.5-144.75q0-4.3977-1.169-8.0717t-3.2843-6.346-5.1213-4.1193q-2.9503-1.503-6.5687-1.503-3.6183 0-6.6243 1.503t-5.1213 4.175-3.2843 6.4017q-1.169 3.674-1.169 8.0717t1.1133 8.0717q1.169 3.674 3.2843 6.346t5.0657 4.175q3.006 1.4473 6.6243 1.4473 3.1173 0 5.9007-1.2247l2.4493 4.008 3.5627-2.1153-2.505-4.0637q3.173-2.672 5.01-6.9583 1.837-4.342 1.837-9.7974zm-4.342 0.11134q0 4.5647-1.2247 7.9047t-3.34 5.344l-3.1173-5.1213-3.5627 2.1153 3.173 5.177q-1.67 0.66801-3.674 0.66801-2.5607 0-4.7317-1.1133-2.171-1.169-3.7853-3.2843-1.5587-2.171-2.505-5.1213-0.89066-3.006-0.89066-6.68t0.89066-6.6243q0.89067-3.006 2.4493-5.0657 1.5587-2.1153 3.674-3.2287 2.171-1.169 4.676-1.169 2.5607 0 4.7317 1.169 2.171 1.1133 3.7853 3.2843 1.6143 2.1153 2.505 5.1214 0.94633 2.9503 0.94633 6.6243z"/>
<path d="m177.85-141.13v-23.046h-4.342v23.157q0 6.346-2.171 9.4077t-7.2367 3.0617q-9.9643 0-9.9643-12.581v-23.046h-4.342v23.157q0 8.1273 3.507 12.302 3.5627 4.1193 10.577 4.1193 7.0697 0 10.521-4.175 3.4513-4.2307 3.4513-12.358z"/>
<path d="m192.42-125.21v-38.967h-4.342v38.967h4.342z"/>
<path d="m229.74-131.06-3.006-2.6163q-1.8927 2.4493-4.175 3.7853t-5.4553 1.336q-2.4493 0-4.5647-1.169-2.1153-1.2247-3.674-3.34-1.5587-2.171-2.4493-5.1213-0.835-3.006-0.835-6.5687t0.835-6.513q0.89067-2.9503 2.3937-5.0657 1.503-2.1153 3.6183-3.2843 2.1153-1.2247 4.6203-1.2247 3.173 0 5.177 1.169t3.8967 3.7297l3.4513-2.6163q-4.509-6.2347-12.414-6.2347-3.507 0-6.4574 1.5587-2.9503 1.503-5.0657 4.175-2.0597 2.672-3.2287 6.4017-1.169 3.674-1.169 8.016 0 4.2863 1.1133 7.9603t3.173 6.346 4.9543 4.2307q2.9503 1.503 6.513 1.503 4.2863 0 7.4593-1.7813t5.2883-4.676z"/>
<path d="m266.14-125.21-13.583-24.326 11.412-14.64h-4.7317l-11.3 14.585q-0.61234 0.77933-1.4473 1.837-0.77933 1.0577-1.6143 2.171-0.835 1.1133-1.5587 2.1153-0.668 0.94633-1.0577 1.503v-5.2327-16.978h-4.342v38.967h4.342v-11.189l7.4037-9.5747 11.523 20.764h4.9543z"/>
<path d="m296.05-135.45q0-2.171-0.55667-3.841t-1.8927-3.0617q-1.2803-1.3917-3.4513-2.5607t-5.3997-2.338q-2.9503-1.0577-4.7873-1.9483-1.7813-0.89066-2.7833-1.7813-1.002-0.94634-1.336-1.8927-0.334-1.002-0.334-2.2267 0-1.169 0.38967-2.171 0.44533-1.0577 1.336-1.837 0.94633-0.77933 2.3937-1.2247 1.4473-0.501 3.4513-0.501 2.9503 0 5.0657 0.94633 2.171 0.89067 4.2863 2.672l2.7833-3.3957q-2.4493-1.9483-5.2327-3.0617-2.7277-1.1133-6.6243-1.1133-2.7277 0-5.01 0.668-2.2267 0.668-3.841 2.004-1.5587 1.2803-2.4493 3.1173-0.89067 1.837-0.89067 4.175 0 2.1153 0.55667 3.7297 0.61234 1.6143 1.8927 2.9503 1.336 1.2803 3.4513 2.4493 2.171 1.1133 5.344 2.2267 2.672 0.94633 4.4533 1.8927 1.7813 0.89067 2.839 1.837 1.1133 0.94633 1.5587 2.0597 0.44533 1.1133 0.44533 2.4493 0 3.1173-2.2823 4.8987-2.2267 1.7813-6.1233 1.7813-3.006 0-5.5667-1.2803t-4.7873-3.3957l-2.8947 3.2287q2.338 2.338 5.678 3.8967 3.3957 1.503 7.4037 1.503 3.0617 0 5.4553-0.835 2.3937-0.835 4.0637-2.2823t2.505-3.4513q0.89067-2.004 0.89067-4.2863z"/>
<path d="m328.75-160.23v-3.9523h-27.277v3.9523h11.467v35.014h4.342v-35.014h11.467z"/>
<path d="m362.02-125.21-13.527-38.967h-4.7873l-13.527 38.967h4.4533l3.3957-9.9087h16.088l3.34 9.9087h4.5647zm-9.2407-13.861h-13.416l4.2863-12.692q0.334-1.002 0.72367-2.1153 0.38967-1.169 0.72367-2.2267t0.55666-1.9483q0.27834-0.89067 0.44534-1.503 0.167 0.61233 0.38966 1.5587 0.27834 0.89067 0.61234 1.9483 0.334 1.002 0.668 2.1153 0.38967 1.1133 0.72367 2.0597l4.2863 12.803z"/>
<path d="m397.69-153.16q0-2.839-0.94634-4.8987-0.94633-2.0597-2.5607-3.3957-1.6143-1.3917-3.841-2.0597t-4.7873-0.668h-15.42v38.967h4.342v-16.589h9.2407l8.35 16.589h5.01l-8.5727-16.923q4.175-0.89067 6.68-3.674t2.505-7.348zm-4.342 0.167q0 3.674-2.1153 5.511-2.0597 1.7813-6.4017 1.7813h-10.354v-14.529h10.911q3.8967 0 5.9007 1.837 2.0597 1.7813 2.0597 5.3997z"/>
<path d="m430.13-160.23v-3.9523h-27.277v3.9523h11.467v35.014h4.342v-35.014h11.467z"/>
<path d="m460.77-135.45q0-2.171-0.55667-3.841t-1.8927-3.0617q-1.2803-1.3917-3.4513-2.5607t-5.3997-2.338q-2.9503-1.0577-4.7873-1.9483-1.7813-0.89066-2.7833-1.7813-1.002-0.94634-1.336-1.8927-0.334-1.002-0.334-2.2267 0-1.169 0.38967-2.171 0.44533-1.0577 1.336-1.837 0.94633-0.77933 2.3937-1.2247 1.4473-0.501 3.4513-0.501 2.9503 0 5.0657 0.94633 2.171 0.89067 4.2863 2.672l2.7833-3.3957q-2.4493-1.9483-5.2327-3.0617-2.7277-1.1133-6.6243-1.1133-2.7277 0-5.01 0.668-2.2267 0.668-3.841 2.004-1.5587 1.2803-2.4493 3.1173-0.89067 1.837-0.89067 4.175 0 2.1153 0.55667 3.7297 0.61234 1.6143 1.8927 2.9503 1.336 1.2803 3.4513 2.4493 2.171 1.1133 5.344 2.2267 2.672 0.94633 4.4533 1.8927 1.7813 0.89067 2.839 1.837 1.1133 0.94633 1.5587 2.0597 0.44533 1.1133 0.44533 2.4493 0 3.1173-2.2823 4.8987-2.2267 1.7813-6.1234 1.7813-3.006 0-5.5667-1.2803t-4.7873-3.3957l-2.8947 3.2287q2.338 2.338 5.678 3.8967 3.3957 1.503 7.4037 1.503 3.0617 0 5.4553-0.835 2.3937-0.835 4.0637-2.2823t2.505-3.4513q0.89067-2.004 0.89067-4.2863z"/>
</g>
<path d="m60.516-191.65c-1.1277 0-2.0355 0.90783-2.0355 2.0355 0 0.74948 0.41771 1.4278 1.0178 1.7811l3.0532 3.8166v0.50887 4.071h-16.284l-10.05 6.1065 10.05 6.1064 16.284-0.12697v0.12697 12.086 20.482h4.071v-20.482l12.213 0.127 10.305-6.1065-10.305-6.1065h-12.213v-4.1982l20.355 0.12698 10.432-6.1065-10.432-5.9793-20.355-0.127v-0.50887l3.0532-3.8166c0.60009-0.35335 1.0178-1.0316 1.0178-1.7811 0-1.1276-0.90784-2.0355-2.0355-2.0355h-2.0355-4.071-2.0355z"/>
</g>
</g>
</svg>
