<svg xmlns:rdf="http://www.w3.org/1999/02/22-rdf-syntax-ns#" xmlns="http://www.w3.org/2000/svg" height="111.26" viewBox="0 0 168.24727 111.26197" width="168.25" version="1.1" xmlns:cc="http://creativecommons.org/ns#" xmlns:dc="http://purl.org/dc/elements/1.1/">
<g transform="translate(-458.73 -196.73)">
<g transform="translate(-303.9 494.3)">
<path d="m908.59 50.568c-19.007-0.14232-40.398 4.6419-61.264 14.705-5.6714 2.7352-16.135 8.9805-16.135 8.9805l-8.2988 6.3613-10.928 5.1621 1.1426 2.3398-2.2656 1.7363s-0.0589 0.04993-0.0879 0.07813l15.94 33.069c0.007-0.002 0.0234-0.002 0.0234-0.002l3.0508-0.76563 1.1602 2.375 13.186-5.9766 7.9609-1.998s11.146-4.2298 16.689-6.9043c29.029-13.997 50.691-35.159 60.861-56.748l0.006-0.0039c-6.5324-1.5431-13.606-2.3525-21.043-2.4082z" transform="translate(0 -347.64)" stroke="#4d4f53" stroke-width="1px" fill="#4d4f53"/>
<g transform="matrix(1.2201 .42615 .42615 -1.2201 772.64 -228.15)">
<path d="m0 0 18.634 16.487-6.428-13.221 10.239 3.049-23.368-27.152 38.34 30.301-18.613 17.904-18.804-27.368z" fill="#ea0011"/>
</g>
<g transform="matrix(1.2201 .42615 .42615 -1.2201 863.82 -262.65)">
<path d="m0 0c-3.035 3.034-3.031 7.952 0 10.983 3.032 3.034 7.953 3.035 10.982-0.001 3.037-3.03 3.036-7.949 0.001-10.983-3.03-3.033-7.951-3.033-10.983 0.001"/>
</g>
<g transform="matrix(1.2201 .42615 .42615 -1.2201 775.51 -273.01)">
<path d="m0 0 29.692-2.109s-0.031-0.053-0.045-0.081l0.105-0.104 10.825 16.771-34.512-9.125s-4.166-3.452-6.065-5.352m49.729-22.278c0.005 0.003 0.017 0.008 0.017 0.008l2.132-29.722c1.844 1.843 5.221 5.896 5.221 5.896l9.533 34.897-16.903-11.079z" fill="#363534"/>
</g>
<g transform="matrix(1.2201 .42615 .42615 -1.2201 775.51 -273.01)">
<path d="m0 0 29.692-2.109s-0.031-0.053-0.045-0.081l0.105-0.104 10.825 16.771-34.512-9.125s-4.166-3.452-6.065-5.352zm49.729-22.278c0.005 0.003 0.017 0.008 0.017 0.008l2.132-29.722c1.844 1.843 5.221 5.896 5.221 5.896l9.533 34.897-16.903-11.079z" stroke="#4d4f53" stroke-miterlimit="10" stroke-width=".96719" fill="#363534"/>
</g>
</g>
</g>
</svg>
